# xmcd
#
# Track frame offsets:
#	150
#	16012
#	31126
#	43087
#	59833
#	79022
#	100950
#	114796
#	128242
#	144147
#	157758
#	186539
#
# Disc length: 2653 seconds
#
# Revision: 1
# Processed by: cddbd v1.5.2PL0 Copyright (c) Steve Scherf et al.
# Submitted via: audiograbber 1.83.01
#
DISCID=920a5b0c
DTITLE=Hank Williams Jr. - It's About Time
DYEAR=2016
DGENRE=Country
TTITLE0=Are You Ready for the Country (feat. Eric Church)
TTITLE1=Club U.S.A.
TTITLE2=God Fearin' Man
TTITLE3=Those Days Are Gone
TTITLE4=Dress Like an Icon
TTITLE5=God and Guns
TTITLE6=Just Call Me Hank
TTITLE7=Mental Revenge
TTITLE8=It's About Time
TTITLE9=The Party's On
TTITLE10=Wrapped Up, Tangled Up In Jesus (God's Got It)
TTITLE11=Born to Boogie (feat. Brantley Gilbert, Justin Moore and Brad Paisley)
EXTD=
EXTT0=
EXTT1=
EXTT2=
EXTT3=
EXTT4=
EXTT5=
EXTT6=
EXTT7=
EXTT8=
EXTT9=
EXTT10=
EXTT11=
PLAYORDER=
